<?xml version="1.0" encoding="UTF-8" standalone="no"?>
<svg
   xmlns:dc="http://purl.org/dc/elements/1.1/"
   xmlns:cc="http://creativecommons.org/ns#"
   xmlns:rdf="http://www.w3.org/1999/02/22-rdf-syntax-ns#"
   xmlns:svg="http://www.w3.org/2000/svg"
   xmlns="http://www.w3.org/2000/svg"
   xmlns:sodipodi="http://sodipodi.sourceforge.net/DTD/sodipodi-0.dtd"
   xmlns:inkscape="http://www.inkscape.org/namespaces/inkscape"
   width="100"
   height="82.630058"
   version="1.1"
   id="svg26"
   sodipodi:docname="olympics.svg"
   inkscape:version="0.92.4 (5da689c313, 2019-01-14)">
  <metadata
     id="metadata32">
    <rdf:RDF>
      <cc:Work
         rdf:about="">
        <dc:format>image/svg+xml</dc:format>
        <dc:type
           rdf:resource="http://purl.org/dc/dcmitype/StillImage" />
        <dc:title></dc:title>
      </cc:Work>
    </rdf:RDF>
  </metadata>
  <defs
     id="defs30" />
  <sodipodi:namedview
     pagecolor="#ffffff"
     bordercolor="#666666"
     borderopacity="1"
     objecttolerance="10"
     gridtolerance="10"
     guidetolerance="10"
     inkscape:pageopacity="0"
     inkscape:pageshadow="2"
     inkscape:window-width="1920"
     inkscape:window-height="1017"
     id="namedview28"
     showgrid="false"
     fit-margin-top="0"
     fit-margin-left="0"
     fit-margin-right="0"
     fit-margin-bottom="0"
     inkscape:zoom="3.84"
     inkscape:cx="47.043677"
     inkscape:cy="12.861945"
     inkscape:window-x="-8"
     inkscape:window-y="-8"
     inkscape:window-maximized="1"
     inkscape:current-layer="svg26" />
  <g
     transform="matrix(3.3235869,0,0,3.3235869,-900.69315,-6183.5344)"
     id="g24">
    <path
       style="color:#000000;overflow:visible;isolation:auto;mix-blend-mode:normal;fill:#ee7581"
       d="m 277.484,1878.35 7.9,-2.117 c 1.823,-1.736 2.789,-4.104 2.156,-6.466 l -1.178,-4.395 c -0.978,-3.652 -5.146,-5.686 -9.344,-4.562 -4.198,1.125 -6.79,4.971 -5.811,8.623 l 1.177,4.395 c 0.633,2.362 2.653,3.93 5.1,4.521 z"
       overflow="visible"
       id="path2"
       inkscape:connector-curvature="0" />
    <path
       d="m 277.485,1878.35 c 0.84,0.195 1.72,0.29 2.624,0.248 l 1.813,6.764 3.124,-0.837 -1.813,-6.764 a 9.597,9.597 0 0 0 2.15,-1.528 z"
       id="path4"
       inkscape:connector-curvature="0"
       style="fill:#f9cc36" />
    <path
       d="m 273.076,1863.07 c -0.126,0.128 -0.237,0.266 -0.352,0.4 a 8.723,8.723 0 0 1 3.526,-1.89 c 4.198,-1.126 8.364,0.909 9.343,4.561 l 1.178,4.396 c 0.546,2.038 -0.102,4.08 -1.46,5.716 l -0.11,0.13 c 0.058,-0.053 0.126,-0.097 0.183,-0.15 1.823,-1.736 2.789,-4.103 2.156,-6.465 l -1.178,-4.396 c -0.979,-3.652 -5.145,-5.687 -9.343,-4.562 -1.574,0.422 -2.924,1.228 -3.943,2.26 z"
       id="path6"
       inkscape:connector-curvature="0"
       style="fill:#ee6276" />
    <path
       d="m 282.386,1878.267 1.751,6.502 0.91,-0.245 -1.823,-6.77 c -0.272,0.18 -0.542,0.36 -0.838,0.513 z"
       id="path8"
       inkscape:connector-curvature="0"
       style="fill:#f9bc36" />
    <path
       d="m 291.9,1878.727 a 9.596,9.596 0 0 1 -2.6,-0.44 l -3.5,6.065 -2.801,-1.617 3.501,-6.064 a 9.595,9.595 0 0 1 -1.682,-2.032 z"
       id="path10"
       inkscape:connector-curvature="0"
       style="fill:#f9cc36" />
    <path
       style="color:#000000;overflow:visible;isolation:auto;mix-blend-mode:normal;fill:#ee7581"
       d="m 277.344,1868.563 h 10.115 c 2.734,-1.49 4.646,-4.01 4.646,-7.035 v -5.628 c 0,-4.677 -4.328,-8.442 -9.704,-8.442 -5.376,0 -9.704,3.765 -9.704,8.442 v 5.628 c 0,3.025 1.912,5.545 4.647,7.035 z"
       overflow="visible"
       transform="matrix(-0.70013824,-0.404225,-0.404225,0.70013824,1241.3992,682.58418)"
       id="path12"
       inkscape:connector-curvature="0" />
    <path
       d="m 285.72,1863.854 c -0.01,0.018 -0.024,0.033 -0.035,0.051 l -2.275,3.94 c -1.223,2.117 -0.902,4.654 0.41,6.802 l 1.627,0.94 c -0.24,-0.303 -0.47,-0.615 -0.672,-0.938 l 1.346,0.777 h 0.002 l -1.348,-0.777 c -1.312,-2.148 -1.633,-4.685 -0.41,-6.803 l 1.79,-3.095 a 6.04,6.04 0 0 0 -0.434,-0.895 z m -1.9,10.795 a 9.76,9.76 0 0 0 1.319,1.649 v 0 c 0.024,0.024 0.047,0.05 0.072,0.074 0.055,-0.05 0.118,-0.09 0.172,-0.14 0.114,-0.11 0.215,-0.229 0.322,-0.343 -0.085,-0.1 -0.174,-0.198 -0.256,-0.3 z m -0.066,5.059 -1.754,3.037 2.8,1.617 0.137,-0.238 -0.074,-0.278 -1.908,-1.101 1.102,-1.908 -0.303,-1.13 z"
       id="path14"
       inkscape:connector-curvature="0"
       style="fill:#406b95" />
    <circle
       cx="293.5"
       cy="1873.8621"
       r="2.5"
       overflow="visible"
       style="color:#000000;overflow:visible;isolation:auto;mix-blend-mode:normal;fill:#f2f2f2"
       id="circle16" />
    <path
       style="color:#000000;overflow:visible;isolation:auto;mix-blend-mode:normal;fill:#d2dce9"
       d="m 293.5,851 a 2.5,2.5 0 0 0 -0.496,0.053 2.5,2.5 0 0 1 1.996,2.447 2.5,2.5 0 0 1 -2.004,2.447 2.5,2.5 0 0 0 0.504,0.053 2.5,2.5 0 0 0 2.5,-2.5 2.5,2.5 0 0 0 -2.5,-2.5 z"
       overflow="visible"
       transform="translate(0,1020.362)"
       id="path18"
       inkscape:connector-curvature="0" />
    <path
       d="m 292.506,1860.727 c -0.18,10e-4 -0.355,0.02 -0.531,0.033 1.28,0.08 2.597,0.445 3.83,1.157 3.764,2.173 5.271,6.557 3.38,9.832 l -2.275,3.941 c -1.055,1.828 -2.956,2.813 -5.074,3.01 l -0.17,0.014 c 0.079,0 0.158,0.02 0.236,0.023 2.517,0.062 4.873,-0.929 6.096,-3.047 l 2.275,-3.941 c 1.89,-3.275 0.384,-7.66 -3.38,-9.832 -1.412,-0.815 -2.936,-1.2 -4.387,-1.19 z"
       id="path20"
       inkscape:connector-curvature="0"
       style="fill:#ee6276" />
    <path
       d="m 288.344,1878.055 -3.36,5.836 0.817,0.471 3.498,-6.076 c -0.32,-0.065 -0.638,-0.13 -0.955,-0.23 z"
       id="path22"
       inkscape:connector-curvature="0"
       style="fill:#f9bc36" />
  </g>
</svg>
